<svg enable-background="new 0 0 280 280" height="280" viewBox="0 0 280 280" width="280" xmlns="http://www.w3.org/2000/svg"><path d="m140 12c-70.58 0-128 57.422-128 128.002 0 70.578 57.42 127.998 128 127.998 70.579 0 128-57.42 128-127.998 0-70.58-57.421-128.002-128-128.002zm0 35.972c20.581 0 39.399 6.068 53.91 16.095l-9.112 8.773-1.193 1.151c-3.657-2.026-7.473-3.758-11.377-5.188-5.162-1.88-10.492-3.271-15.897-4.139-4.318-.674-8.674-1.02-13.029-1.074-1.024-1.674-2.119-3.391-3.301-5.155-1.183 1.765-2.276 3.481-3.301 5.156-4.355.056-8.713.401-13.032 1.076-5.404.866-10.734 2.259-15.896 4.14-3.904 1.431-7.717 3.162-11.372 5.188l-1.2-1.154-9.109-8.775c14.509-10.027 33.326-16.094 53.909-16.094zm31.991 41.844c-.119.615-.188 1.358-.203 1.95l-.077 1.738-.155 3.479-.523 11.81h-62.065l-.524-11.81-.153-3.479-.077-1.738c-.017-.592-.084-1.334-.203-1.95-.494-2.545-1.479-4.819-2.845-6.92-.349-.521-.725-1.028-1.15-1.512-.466-.537-.87-.884-1.291-1.299l-2.507-2.414-2.51-2.418c3.373-1.994 6.904-3.739 10.54-5.216 5.014-2.025 10.23-3.578 15.555-4.63 4.213-.858 8.493-1.403 12.8-1.661-1.125 1.841-2.166 3.627-3.133 5.35-4.836.684-9.631 1.506-14.534 2.384 4.44 1.928 8.287 4.207 11.696 6.509-.365 3.324-.758 6.563-1.443 9.841 3.603-1.548 7.148-3.091 10.813-4.646 3.665 1.555 7.209 3.098 10.814 4.646-.688-3.278-1.083-6.517-1.446-9.841 3.411-2.302 7.26-4.581 11.698-6.509-4.901-.878-9.694-1.7-14.534-2.384-.966-1.723-2.008-3.509-3.133-5.35 4.305.26 8.585.805 12.797 1.663 5.323 1.052 10.54 2.604 15.554 4.632 3.636 1.476 7.165 3.222 10.539 5.216l-2.505 2.413-2.508 2.415c-.42.414-.824.761-1.291 1.299-.426.483-.801.991-1.15 1.512-1.365 2.101-2.352 4.375-2.846 6.92zm16.988 24.572c5.446 0 9.876 4.432 9.876 9.879v60.948c0 5.447-4.43 9.878-9.876 9.878h-97.96c-5.446 0-9.877-4.431-9.877-9.878v-60.948c0-5.447 4.431-9.879 9.877-9.879zm-134.5 16.713c-1.662.873-3.214 1.931-4.595 3.165-3.853 3.401-6.404 8.104-7.01 12.975 1.321-4.731 4.433-8.731 8.331-11.26 1.043-.685 2.143-1.256 3.273-1.731v33.9c-1.133-.475-2.232-1.048-3.273-1.729-3.9-2.53-7.012-6.53-8.332-11.262.605 4.871 3.156 9.574 7.01 12.976 1.383 1.229 2.934 2.291 4.596 3.166v3.056c-10.59-3.449-18.226-12.998-18.226-24.217 0-11.218 7.636-20.766 18.226-24.216zm2.474 56.409v-72.384c0-20.409 11.274-38.679 29.044-50.994l8.307 9.561.882 1.015c-5.525 3.196-10.677 7.065-15.185 11.661-7.755 7.919-13.484 18.113-15.401 29.252-.484 2.769-.733 5.599-.749 8.401l-.071 8.175-.143 16.351-.231 32.7-.043 8.175-.012 2.043c0 .681-.017 1.346.012 2.126.057 1.523.253 3.007.592 4.479 1.184 5.188 4.191 9.899 8.328 13.233-9.018-4.151-15.33-13.261-15.33-23.794zm131.442 65.637c-.026-.051-.046-.106-.077-.156l-.042-.065c-1.981-3.145-4.632-5.925-7.538-8.15-2.924-2.238-6.143-4.005-9.493-5.356-2.023-.817-4.096-1.464-6.194-1.986-.167.384-.383.768-.642 1.15 2.086.702 4.121 1.532 6.069 2.524 3.086 1.57 5.967 3.507 8.476 5.802 2.432 2.242 4.46 4.775 5.985 7.657-13.922 5.469-29.075 8.487-44.938 8.487-15.862 0-31.016-3.019-44.938-8.486 1.491-2.833 3.553-5.423 5.985-7.658 2.508-2.295 5.389-4.23 8.475-5.802 1.948-.992 3.981-1.821 6.064-2.523-.259-.383-.474-.767-.642-1.15-2.096.522-4.168 1.17-6.189 1.985-3.35 1.352-6.568 3.118-9.494 5.356-2.913 2.242-5.533 4.971-7.557 8.186-.027.045-.057.095-.08.142-.008.016-.012.03-.017.046-4.068-1.743-8.03-3.685-11.857-5.839 6.987-8.277 19.387-13.787 33.528-13.787h1.576c.094-.199.2-.392.327-.575-.469-.871-.707-1.742-.71-2.605 0-.862.245-1.651.71-2.324-.471-.871-.707-1.742-.71-2.606 0-.861.246-1.649.71-2.322-.469-.871-.707-1.743-.71-2.605 0-.863.246-1.652.71-2.324-.274-.511-.46-1.021-.575-1.529l2.622.005c.126.378.322.713.521.999.741.989 1.673 1.708 2.629 2.359 1.931 1.28 4.038 2.215 6.192 2.964 2.162.738 4.395 1.241 6.641 1.572 2.249.329 4.524.457 6.787.374 2.262.083 4.537-.046 6.786-.375 2.249-.332 4.479-.835 6.642-1.573 2.156-.749 4.262-1.684 6.192-2.966.956-.65 1.89-1.369 2.628-2.358.2-.284.396-.62.521-.994l2.624-.005c-.114.508-.3 1.018-.576 1.529.466.67.71 1.459.71 2.322 0 .861-.238 1.734-.71 2.607.466.672.71 1.459.71 2.32 0 .863-.238 1.735-.71 2.608.466.673.71 1.461.71 2.322s-.237 1.733-.709 2.606c.128.184.233.376.327.574h1.576c14.144 0 26.544 5.51 33.528 13.787-3.826 2.153-7.787 4.094-11.853 5.836zm-37.279-34.012c-3.614 1.024-7.363 1.552-11.119 1.498-3.753.051-7.504-.475-11.116-1.5-2.161-.632-4.317-1.427-6.3-2.489l.613.002c1.1.527 2.229.984 3.377 1.382 2.162.739 4.394 1.241 6.641 1.572 2.249.33 4.524.457 6.787.374 2.262.083 4.537-.044 6.786-.375s4.479-.835 6.642-1.573c1.144-.397 2.271-.853 3.369-1.379l.62-.001c-1.982 1.061-4.14 1.857-6.3 2.489zm8.252-1.904c.337-.01.768.124.602.35-1.443 1.942-9.746 4.964-12.1 4.403-.271-.064-.03-.444.236-.653zm-27.474 4.1c.263.209.504.589.234.653-2.354.561-10.656-2.461-12.098-4.403-.168-.226.262-.359.599-.35zm71.506-12.659c-2.036 1.327-4.313 2.271-6.687 2.76-1.185.243-2.397.371-3.605.386l-4.057-.004-16.351-.028-81.75.031-4.055.004c-1.214-.015-2.423-.144-3.61-.386-2.37-.489-4.654-1.423-6.689-2.755-4.082-2.651-7.124-6.899-8.256-11.646-.288-1.18-.462-2.408-.519-3.606-.03-.581-.024-1.279-.029-1.963l-.011-2.043-.043-8.175-.232-32.7-.143-16.351-.071-8.175c-.025-2.647.141-5.27.528-7.88 1.528-10.46 6.688-20.271 13.954-28.093 4.252-4.646 9.21-8.634 14.6-11.973l2.495 2.873 2.284 2.628c.37.434.802.895 1.056 1.267.308.417.584.87.84 1.338 1.007 1.878 1.697 4.025 1.896 6.066.049.533.049.95.018 1.519l-.076 1.738-.154 3.479-.525 11.81h-13.189c-8.51 0-15.473 6.962-15.473 15.474v60.948c0 8.51 6.963 15.473 15.473 15.473h97.961c8.513 0 15.474-6.963 15.474-15.473v-60.948c0-8.512-6.961-15.474-15.474-15.474h-13.19l-.523-11.81-.154-3.479-.078-1.738c-.031-.568-.029-.985.02-1.519.198-2.041.891-4.188 1.896-6.066.256-.469.533-.922.838-1.339.256-.372.687-.833 1.056-1.267l2.285-2.627 2.492-2.868c5.388 3.337 10.346 7.325 14.597 11.972 7.268 7.817 12.426 17.63 13.953 28.088.188 1.304.342 2.611.417 3.926.055.661.071 1.303.097 1.949l.018 2.003-.072 8.175-.143 16.351-.23 32.7-.044 8.176-.01 2.043c-.007.692 0 1.367-.03 1.951-.057 1.22-.231 2.432-.518 3.616-1.135 4.744-4.175 8.992-8.257 11.642zm19.647-21.162c0 10.52-6.298 19.619-15.296 23.777 4.123-3.335 7.121-8.04 8.302-13.218.339-1.468.537-2.968.591-4.47.029-.778.012-1.468.012-2.137l-.01-2.043-.043-8.176-.231-32.7-.145-16.351-.07-8.175-.055-2.083c-.04-.716-.072-1.436-.142-2.132-.119-1.404-.318-2.801-.552-4.188-.965-5.551-2.872-10.909-5.511-15.84-2.654-4.925-6.016-9.438-9.896-13.413-4.507-4.595-9.658-8.463-15.183-11.658l.878-1.012 8.307-9.56c17.769 12.315 29.044 30.585 29.044 50.993zm2.474-13.154v-3.056c1.661-.875 3.21-1.937 4.591-3.165 3.854-3.401 6.406-8.104 7.01-12.976-1.319 4.731-4.431 8.731-8.329 11.261-1.041.681-2.141 1.254-3.271 1.729v-33.9c1.129.476 2.229 1.047 3.27 1.73 3.9 2.529 7.01 6.528 8.331 11.261-.604-4.87-3.156-9.574-7.01-12.975-1.379-1.234-2.93-2.292-4.591-3.165v-5.176c10.587 3.451 18.223 12.998 18.223 24.215-.002 11.218-7.638 20.766-18.224 24.217z"/><path d="m161.602 233.817-.3-.154-.27.235c-2.764 2.426-6.34 3.907-9.918 4.953-3.612 1.025-7.361 1.553-11.117 1.5-3.753.05-7.504-.476-11.116-1.501-3.576-1.047-7.152-2.526-9.916-4.954l-.267-.235-.306.154c-.547.275-1.214.827-1.284 1.649-.068.776.299 1.395.643 1.887.74.989 1.672 1.707 2.628 2.358 1.931 1.281 4.038 2.216 6.192 2.964 2.162.739 4.395 1.241 6.641 1.572 2.249.33 4.524.457 6.787.374 2.262.083 4.537-.044 6.786-.375 2.247-.33 4.479-.835 6.64-1.573 2.156-.748 4.264-1.683 6.194-2.964.956-.651 1.89-1.37 2.628-2.359.346-.49.707-1.115.643-1.873-.078-.847-.74-1.375-1.288-1.658zm-29.474 7.885c-2.354.561-10.658-2.463-12.098-4.404-.168-.223.262-.358.599-.35l11.265 4.1c.26.209.502.589.234.654zm27.842-4.404c-1.443 1.941-9.746 4.965-12.098 4.404-.271-.065-.029-.445.234-.654l11.266-4.1c.334-.009.764.127.598.35z"/><path d="m161.601 228.887-.301-.153-.268.236c-2.764 2.427-6.34 3.907-9.916 4.953-3.614 1.024-7.363 1.551-11.119 1.499-3.753.049-7.504-.476-11.116-1.5-3.576-1.047-7.153-2.526-9.916-4.954l-.267-.235-.305.152c-.548.276-1.215.828-1.285 1.65-.068.777.299 1.395.642 1.887.741.989 1.673 1.707 2.629 2.359 1.931 1.281 4.037 2.215 6.192 2.964 2.162.738 4.394 1.242 6.641 1.573 2.249.33 4.524.456 6.787.373 2.262.083 4.537-.044 6.786-.375s4.479-.835 6.642-1.573c2.156-.749 4.262-1.684 6.192-2.965.956-.652 1.89-1.371 2.628-2.36.346-.489.707-1.117.643-1.872-.076-.851-.742-1.377-1.289-1.659zm-29.473 7.887c-2.354.563-10.652-2.464-12.098-4.404-.168-.224.262-.358.599-.35l11.263 4.101c.264.21.504.589.236.653zm27.842-4.404c-1.447 1.94-9.749 4.967-12.1 4.404-.27-.064-.03-.443.236-.653l11.262-4.101c.338-.008.768.126.602.35z"/><path d="m161.602 223.958-.3-.155-.27.237c-2.764 2.427-6.34 3.907-9.916 4.953-3.614 1.023-7.363 1.551-11.119 1.498-3.753.049-7.504-.475-11.116-1.499-3.576-1.047-7.153-2.526-9.916-4.954l-.267-.235-.306.154c-.547.275-1.214.826-1.284 1.649-.068.776.299 1.395.642 1.887.741.988 1.673 1.707 2.629 2.358 1.931 1.281 4.038 2.216 6.192 2.964 2.162.738 4.394 1.241 6.641 1.572 2.249.329 4.524.457 6.787.375 2.262.082 4.537-.046 6.786-.375 2.247-.332 4.479-.837 6.642-1.574 2.156-.748 4.262-1.683 6.192-2.965.956-.65 1.89-1.37 2.628-2.358.346-.491.707-1.116.643-1.874-.078-.847-.74-1.375-1.288-1.658zm-29.474 7.884c-2.355.563-10.656-2.46-12.098-4.402-.168-.225.262-.358.599-.351l11.263 4.101c.262.209.504.588.236.652zm27.842-4.403c-1.443 1.942-9.745 4.965-12.1 4.402-.27-.063-.027-.442.236-.652l11.266-4.101c.334-.007.764.127.598.351z"/><path d="m161.601 219.03-.301-.153-.268.235c-2.765 2.425-6.34 3.906-9.918 4.952-3.612 1.024-7.361 1.551-11.117 1.498-3.753.05-7.504-.474-11.116-1.5-3.576-1.046-7.152-2.526-9.916-4.952l-.266-.234-.304.152c-.551.273-1.218.827-1.287 1.649-.068.776.299 1.395.643 1.887.74.989 1.672 1.707 2.628 2.358 1.932 1.28 4.038 2.215 6.192 2.963 2.162.738 4.395 1.241 6.641 1.572 2.249.329 4.524.457 6.787.374 2.262.082 4.537-.045 6.786-.375 2.247-.331 4.479-.835 6.64-1.572 2.156-.749 4.264-1.684 6.194-2.965.956-.65 1.888-1.369 2.628-2.358.344-.49.707-1.115.643-1.874-.077-.845-.74-1.376-1.289-1.657zm-29.473 7.884c-2.354.562-10.656-2.462-12.098-4.402-.168-.223.26-.358.599-.349l11.263 4.099c.264.21.504.59.236.652zm27.842-4.402c-1.443 1.94-9.746 4.964-12.098 4.402-.271-.063-.032-.442.234-.652l11.262-4.099c.338-.01.768.126.602.349z"/><path d="m84.232 124.267v60.948c0 3.742 3.044 6.786 6.786 6.786h97.961c3.741 0 6.784-3.044 6.784-6.786v-60.948c0-3.742-3.043-6.787-6.784-6.787h-97.96c-3.743-.001-6.787 3.044-6.787 6.787zm87.011 20.056c8.058 0 14.59 6.53 14.59 14.586s-6.532 14.587-14.59 14.587c-8.059 0-14.588-6.531-14.588-14.587s6.53-14.586 14.588-14.586zm-62.487 0c8.054 0 14.586 6.53 14.586 14.586s-6.532 14.587-14.586 14.587c-8.057 0-14.588-6.531-14.588-14.587s6.531-14.586 14.588-14.586z"/></svg>